# xmcd CD database file
#
# Track frame offsets:
#	150
#	15302
#	29056
#	43001
#	57602
#	75227
#	89135
#	101925
#	123106
#	136840
#	151319
#	165573
#
# Disc length: 2488 seconds
#
# Revision: 0
# Processed by: cddbd v1.5.2PL0 Copyright (c) Steve Scherf et al.
# Submitted via: CDex 1.51
#
DISCID=9609b60c
DTITLE=get up and dance wk nr.56 - get up and dance wkshop nr. 56
DYEAR=1900
DGENRE=Country
TTITLE0=Dog and Bone
TTITLE1=Blue Jeans On
TTITLE2=6 Months And 18 Days
TTITLE3=Stay Another Soldier
TTITLE4=American Soldier
TTITLE5=This Swing
TTITLE6=Still On My Mind
TTITLE7=What A Wonderful World
TTITLE8=Rebel Amor x
TTITLE9=Self Control
TTITLE10=Cheek To Cheek
TTITLE11=Magic
EXTD=
EXTT0=
EXTT1=
EXTT2=
EXTT3=
EXTT4=
EXTT5=
EXTT6=
EXTT7=
EXTT8=
EXTT9=
EXTT10=
EXTT11=
PLAYORDER=
